# xmcd
#
# Track frame offsets: 
#        150
#        17105
#        35746
#        52161
#        68150
#        99549
#        115994
#        134372
#        154806
#        171510
#        189434
#        202169
#        222914
#        240566
#        255964
#        281930
#
# Disc length: 3967 seconds
#
# Revision: 0
# Processed by: cddbd v1.5.2PL0 Copyright (c) Steve Scherf et al.
# Submitted via: ExactAudioCopy v0.99pb5
#
DISCID=f70f7d10
DTITLE=Bryn Haworth - Inside Out
DYEAR=2010
DGENRE=Christian Rock
TTITLE0=Inside Out
TTITLE1=Hard Times
TTITLE2=Nobody's Fault But Mine
TTITLE3=Healing On Me
TTITLE4=Wash Me Clean
TTITLE5=How Great Thou Art
TTITLE6=The Lord Is Good
TTITLE7=I Serve A Risen Saviour
TTITLE8=What Kind Of Love Is This?
TTITLE9=Egypt
TTITLE10=I Can Do All Things
TTITLE11=God Is My Strength
TTITLE12=Trust In Me
TTITLE13=Up On The Downs
TTITLE14=New ID
TTITLE15=Best Worst Thing
EXTD=
EXTT0=
EXTT1=
EXTT2=
EXTT3=
EXTT4=
EXTT5=
EXTT6=
EXTT7=
EXTT8=
EXTT9=
EXTT10=
EXTT11=
EXTT12=
EXTT13=
EXTT14=
EXTT15=
PLAYORDER=
